<mxfile host="Electron" agent="Mozilla/5.0 (Windows NT 10.0; Win64; x64) AppleWebKit/537.36 (KHTML, like Gecko) draw.io/24.7.8 Chrome/128.0.6613.36 Electron/32.0.1 Safari/537.36" version="24.7.8">
  <diagram name="Seite-1" id="XX_EP1eDZ5W4jPPL_RQk">
    <mxGraphModel dx="1564" dy="-1144" grid="1" gridSize="10" guides="1" tooltips="1" connect="1" arrows="1" fold="1" page="1" pageScale="1" pageWidth="827" pageHeight="1169" math="0" shadow="0">
      <root>
        <mxCell id="0" />
        <mxCell id="1" parent="0" />
        <mxCell id="bH_SWkeSkAfLZ4fVDIds-1" value="ChoosePiece" style="shape=umlFrame;whiteSpace=wrap;html=1;pointerEvents=0;recursiveResize=0;container=1;collapsible=0;width=160;" vertex="1" parent="1">
          <mxGeometry x="1280" y="2400" width="1880" height="720" as="geometry" />
        </mxCell>
        <mxCell id="bH_SWkeSkAfLZ4fVDIds-96" style="edgeStyle=orthogonalEdgeStyle;rounded=0;orthogonalLoop=1;jettySize=auto;html=1;exitX=1;exitY=0.5;exitDx=0;exitDy=0;entryX=0;entryY=0.5;entryDx=0;entryDy=0;" edge="1" parent="bH_SWkeSkAfLZ4fVDIds-1" source="bH_SWkeSkAfLZ4fVDIds-3" target="bH_SWkeSkAfLZ4fVDIds-15">
          <mxGeometry relative="1" as="geometry" />
        </mxCell>
        <mxCell id="bH_SWkeSkAfLZ4fVDIds-3" value="NoPiece" style="rounded=1;whiteSpace=wrap;html=1;" vertex="1" parent="bH_SWkeSkAfLZ4fVDIds-1">
          <mxGeometry x="200" y="200" width="120" height="40" as="geometry" />
        </mxCell>
        <mxCell id="bH_SWkeSkAfLZ4fVDIds-4" value="" style="ellipse;whiteSpace=wrap;html=1;aspect=fixed;fillColor=#000000;" vertex="1" parent="bH_SWkeSkAfLZ4fVDIds-1">
          <mxGeometry x="120" y="200" width="40" height="40" as="geometry" />
        </mxCell>
        <mxCell id="bH_SWkeSkAfLZ4fVDIds-5" style="edgeStyle=orthogonalEdgeStyle;rounded=0;orthogonalLoop=1;jettySize=auto;html=1;entryX=0;entryY=0.5;entryDx=0;entryDy=0;" edge="1" parent="bH_SWkeSkAfLZ4fVDIds-1" source="bH_SWkeSkAfLZ4fVDIds-4" target="bH_SWkeSkAfLZ4fVDIds-3">
          <mxGeometry relative="1" as="geometry">
            <mxPoint x="380" y="310" as="targetPoint" />
          </mxGeometry>
        </mxCell>
        <mxCell id="bH_SWkeSkAfLZ4fVDIds-11" style="edgeStyle=orthogonalEdgeStyle;rounded=0;orthogonalLoop=1;jettySize=auto;html=1;exitX=1;exitY=0.5;exitDx=0;exitDy=0;entryX=0;entryY=0.5;entryDx=0;entryDy=0;" edge="1" parent="bH_SWkeSkAfLZ4fVDIds-1" source="bH_SWkeSkAfLZ4fVDIds-15" target="bH_SWkeSkAfLZ4fVDIds-20">
          <mxGeometry relative="1" as="geometry" />
        </mxCell>
        <mxCell id="bH_SWkeSkAfLZ4fVDIds-12" value="[hasTurbo()]" style="edgeLabel;html=1;align=center;verticalAlign=middle;resizable=0;points=[];" vertex="1" connectable="0" parent="bH_SWkeSkAfLZ4fVDIds-11">
          <mxGeometry x="0.0633" y="-2" relative="1" as="geometry">
            <mxPoint x="-2" y="-12" as="offset" />
          </mxGeometry>
        </mxCell>
        <mxCell id="bH_SWkeSkAfLZ4fVDIds-13" style="edgeStyle=orthogonalEdgeStyle;rounded=1;orthogonalLoop=1;jettySize=auto;html=1;exitX=0.5;exitY=1;exitDx=0;exitDy=0;entryX=0;entryY=0.5;entryDx=0;entryDy=0;curved=0;" edge="1" parent="bH_SWkeSkAfLZ4fVDIds-1" source="bH_SWkeSkAfLZ4fVDIds-15" target="bH_SWkeSkAfLZ4fVDIds-55">
          <mxGeometry relative="1" as="geometry" />
        </mxCell>
        <mxCell id="bH_SWkeSkAfLZ4fVDIds-14" value="[else]" style="edgeLabel;html=1;align=center;verticalAlign=middle;resizable=0;points=[];" vertex="1" connectable="0" parent="bH_SWkeSkAfLZ4fVDIds-13">
          <mxGeometry x="-0.6606" y="4" relative="1" as="geometry">
            <mxPoint x="17" y="-20" as="offset" />
          </mxGeometry>
        </mxCell>
        <mxCell id="bH_SWkeSkAfLZ4fVDIds-15" value="" style="rhombus;whiteSpace=wrap;html=1;" vertex="1" parent="bH_SWkeSkAfLZ4fVDIds-1">
          <mxGeometry x="360" y="205" width="41" height="30" as="geometry" />
        </mxCell>
        <mxCell id="bH_SWkeSkAfLZ4fVDIds-16" style="edgeStyle=orthogonalEdgeStyle;rounded=0;orthogonalLoop=1;jettySize=auto;html=1;exitX=1;exitY=0.5;exitDx=0;exitDy=0;entryX=0;entryY=0.5;entryDx=0;entryDy=0;" edge="1" parent="bH_SWkeSkAfLZ4fVDIds-1" source="bH_SWkeSkAfLZ4fVDIds-20" target="bH_SWkeSkAfLZ4fVDIds-25">
          <mxGeometry relative="1" as="geometry" />
        </mxCell>
        <mxCell id="bH_SWkeSkAfLZ4fVDIds-17" value="[turbo == 0]" style="edgeLabel;html=1;align=center;verticalAlign=middle;resizable=0;points=[];" vertex="1" connectable="0" parent="bH_SWkeSkAfLZ4fVDIds-16">
          <mxGeometry x="-0.038" y="-1" relative="1" as="geometry">
            <mxPoint x="2" y="-11" as="offset" />
          </mxGeometry>
        </mxCell>
        <mxCell id="bH_SWkeSkAfLZ4fVDIds-18" style="edgeStyle=orthogonalEdgeStyle;rounded=0;orthogonalLoop=1;jettySize=auto;html=1;exitX=0.5;exitY=1;exitDx=0;exitDy=0;entryX=0.5;entryY=0;entryDx=0;entryDy=0;" edge="1" parent="bH_SWkeSkAfLZ4fVDIds-1" source="bH_SWkeSkAfLZ4fVDIds-20" target="bH_SWkeSkAfLZ4fVDIds-55">
          <mxGeometry relative="1" as="geometry" />
        </mxCell>
        <mxCell id="bH_SWkeSkAfLZ4fVDIds-19" value="[else]" style="edgeLabel;html=1;align=center;verticalAlign=middle;resizable=0;points=[];" vertex="1" connectable="0" parent="bH_SWkeSkAfLZ4fVDIds-18">
          <mxGeometry x="-0.0398" y="-3" relative="1" as="geometry">
            <mxPoint x="24" y="-28" as="offset" />
          </mxGeometry>
        </mxCell>
        <mxCell id="bH_SWkeSkAfLZ4fVDIds-20" value="" style="rhombus;whiteSpace=wrap;html=1;" vertex="1" parent="bH_SWkeSkAfLZ4fVDIds-1">
          <mxGeometry x="480" y="205" width="41" height="30" as="geometry" />
        </mxCell>
        <mxCell id="bH_SWkeSkAfLZ4fVDIds-21" style="edgeStyle=orthogonalEdgeStyle;rounded=0;orthogonalLoop=1;jettySize=auto;html=1;exitX=1;exitY=0.5;exitDx=0;exitDy=0;entryX=0;entryY=0.5;entryDx=0;entryDy=0;" edge="1" parent="bH_SWkeSkAfLZ4fVDIds-1" source="bH_SWkeSkAfLZ4fVDIds-25" target="bH_SWkeSkAfLZ4fVDIds-30">
          <mxGeometry relative="1" as="geometry" />
        </mxCell>
        <mxCell id="bH_SWkeSkAfLZ4fVDIds-22" value="[roll == 6]" style="edgeLabel;html=1;align=center;verticalAlign=middle;resizable=0;points=[];" vertex="1" connectable="0" parent="bH_SWkeSkAfLZ4fVDIds-21">
          <mxGeometry x="-0.173" y="-1" relative="1" as="geometry">
            <mxPoint x="6" y="-11" as="offset" />
          </mxGeometry>
        </mxCell>
        <mxCell id="bH_SWkeSkAfLZ4fVDIds-23" style="edgeStyle=orthogonalEdgeStyle;rounded=1;orthogonalLoop=1;jettySize=auto;html=1;exitX=0.5;exitY=0;exitDx=0;exitDy=0;entryX=0;entryY=0.5;entryDx=0;entryDy=0;curved=0;" edge="1" parent="bH_SWkeSkAfLZ4fVDIds-1" source="bH_SWkeSkAfLZ4fVDIds-25" target="bH_SWkeSkAfLZ4fVDIds-50">
          <mxGeometry relative="1" as="geometry" />
        </mxCell>
        <mxCell id="bH_SWkeSkAfLZ4fVDIds-24" value="[else]" style="edgeLabel;html=1;align=center;verticalAlign=middle;resizable=0;points=[];" vertex="1" connectable="0" parent="bH_SWkeSkAfLZ4fVDIds-23">
          <mxGeometry x="-0.9" relative="1" as="geometry">
            <mxPoint x="19" y="-7" as="offset" />
          </mxGeometry>
        </mxCell>
        <mxCell id="bH_SWkeSkAfLZ4fVDIds-25" value="" style="rhombus;whiteSpace=wrap;html=1;" vertex="1" parent="bH_SWkeSkAfLZ4fVDIds-1">
          <mxGeometry x="600" y="205" width="41" height="30" as="geometry" />
        </mxCell>
        <mxCell id="bH_SWkeSkAfLZ4fVDIds-26" style="edgeStyle=orthogonalEdgeStyle;rounded=0;orthogonalLoop=1;jettySize=auto;html=1;exitX=1;exitY=0.5;exitDx=0;exitDy=0;entryX=0;entryY=0.5;entryDx=0;entryDy=0;" edge="1" parent="bH_SWkeSkAfLZ4fVDIds-1" source="bH_SWkeSkAfLZ4fVDIds-30" target="bH_SWkeSkAfLZ4fVDIds-35">
          <mxGeometry relative="1" as="geometry" />
        </mxCell>
        <mxCell id="bH_SWkeSkAfLZ4fVDIds-27" value="[board.getPlayerData().getWaitingArea().hasPieces()]" style="edgeLabel;html=1;align=center;verticalAlign=middle;resizable=0;points=[];" vertex="1" connectable="0" parent="bH_SWkeSkAfLZ4fVDIds-26">
          <mxGeometry x="0.0263" y="1" relative="1" as="geometry">
            <mxPoint x="-3" y="-14" as="offset" />
          </mxGeometry>
        </mxCell>
        <mxCell id="bH_SWkeSkAfLZ4fVDIds-28" style="edgeStyle=orthogonalEdgeStyle;rounded=1;orthogonalLoop=1;jettySize=auto;html=1;exitX=0.5;exitY=0;exitDx=0;exitDy=0;entryX=0;entryY=0.5;entryDx=0;entryDy=0;curved=0;" edge="1" parent="bH_SWkeSkAfLZ4fVDIds-1" source="bH_SWkeSkAfLZ4fVDIds-30" target="bH_SWkeSkAfLZ4fVDIds-50">
          <mxGeometry relative="1" as="geometry" />
        </mxCell>
        <mxCell id="bH_SWkeSkAfLZ4fVDIds-29" value="[else]" style="edgeLabel;html=1;align=center;verticalAlign=middle;resizable=0;points=[];" vertex="1" connectable="0" parent="bH_SWkeSkAfLZ4fVDIds-28">
          <mxGeometry x="-0.8803" y="-2" relative="1" as="geometry">
            <mxPoint x="19" y="-4" as="offset" />
          </mxGeometry>
        </mxCell>
        <mxCell id="bH_SWkeSkAfLZ4fVDIds-30" value="" style="rhombus;whiteSpace=wrap;html=1;" vertex="1" parent="bH_SWkeSkAfLZ4fVDIds-1">
          <mxGeometry x="720" y="205" width="41" height="30" as="geometry" />
        </mxCell>
        <mxCell id="bH_SWkeSkAfLZ4fVDIds-31" style="edgeStyle=orthogonalEdgeStyle;rounded=0;orthogonalLoop=1;jettySize=auto;html=1;exitX=1;exitY=0.5;exitDx=0;exitDy=0;entryX=0;entryY=0.5;entryDx=0;entryDy=0;" edge="1" parent="bH_SWkeSkAfLZ4fVDIds-1" source="bH_SWkeSkAfLZ4fVDIds-35" target="bH_SWkeSkAfLZ4fVDIds-38">
          <mxGeometry relative="1" as="geometry" />
        </mxCell>
        <mxCell id="bH_SWkeSkAfLZ4fVDIds-32" value="[board.getNodes().getStartNode(Color).isOccupied()]/&lt;div&gt;sendWaitingPiece(msg)&lt;/div&gt;" style="edgeLabel;html=1;align=center;verticalAlign=middle;resizable=0;points=[];" vertex="1" connectable="0" parent="bH_SWkeSkAfLZ4fVDIds-31">
          <mxGeometry x="0.0779" relative="1" as="geometry">
            <mxPoint x="-1" y="-15" as="offset" />
          </mxGeometry>
        </mxCell>
        <mxCell id="bH_SWkeSkAfLZ4fVDIds-33" style="edgeStyle=orthogonalEdgeStyle;rounded=1;orthogonalLoop=1;jettySize=auto;html=1;exitX=0.5;exitY=0;exitDx=0;exitDy=0;entryX=0;entryY=0.5;entryDx=0;entryDy=0;curved=0;" edge="1" parent="bH_SWkeSkAfLZ4fVDIds-1" source="bH_SWkeSkAfLZ4fVDIds-35" target="bH_SWkeSkAfLZ4fVDIds-50">
          <mxGeometry relative="1" as="geometry" />
        </mxCell>
        <mxCell id="bH_SWkeSkAfLZ4fVDIds-34" value="[else]" style="edgeLabel;html=1;align=center;verticalAlign=middle;resizable=0;points=[];" vertex="1" connectable="0" parent="bH_SWkeSkAfLZ4fVDIds-33">
          <mxGeometry x="-0.8584" y="-3" relative="1" as="geometry">
            <mxPoint x="16" y="-15" as="offset" />
          </mxGeometry>
        </mxCell>
        <mxCell id="bH_SWkeSkAfLZ4fVDIds-35" value="" style="rhombus;whiteSpace=wrap;html=1;" vertex="1" parent="bH_SWkeSkAfLZ4fVDIds-1">
          <mxGeometry x="1000" y="205" width="41" height="30" as="geometry" />
        </mxCell>
        <mxCell id="bH_SWkeSkAfLZ4fVDIds-36" style="edgeStyle=orthogonalEdgeStyle;rounded=0;orthogonalLoop=1;jettySize=auto;html=1;exitX=1;exitY=0.5;exitDx=0;exitDy=0;entryX=0;entryY=0.5;entryDx=0;entryDy=0;" edge="1" parent="bH_SWkeSkAfLZ4fVDIds-1" source="bH_SWkeSkAfLZ4fVDIds-38" target="bH_SWkeSkAfLZ4fVDIds-45">
          <mxGeometry relative="1" as="geometry" />
        </mxCell>
        <mxCell id="bH_SWkeSkAfLZ4fVDIds-37" value="receiveConfirmPiece(Piece)" style="edgeLabel;html=1;align=center;verticalAlign=middle;resizable=0;points=[];" vertex="1" connectable="0" parent="bH_SWkeSkAfLZ4fVDIds-36">
          <mxGeometry x="0.0125" y="-1" relative="1" as="geometry">
            <mxPoint x="10" y="-21" as="offset" />
          </mxGeometry>
        </mxCell>
        <mxCell id="bH_SWkeSkAfLZ4fVDIds-38" value="WaitigPiece" style="rounded=1;whiteSpace=wrap;html=1;" vertex="1" parent="bH_SWkeSkAfLZ4fVDIds-1">
          <mxGeometry x="1320" y="200" width="120" height="40" as="geometry" />
        </mxCell>
        <mxCell id="bH_SWkeSkAfLZ4fVDIds-41" style="edgeStyle=orthogonalEdgeStyle;rounded=0;orthogonalLoop=1;jettySize=auto;html=1;exitX=1;exitY=0.5;exitDx=0;exitDy=0;entryX=0;entryY=0.5;entryDx=0;entryDy=0;" edge="1" parent="bH_SWkeSkAfLZ4fVDIds-1" source="bH_SWkeSkAfLZ4fVDIds-45" target="bH_SWkeSkAfLZ4fVDIds-46">
          <mxGeometry relative="1" as="geometry" />
        </mxCell>
        <mxCell id="bH_SWkeSkAfLZ4fVDIds-42" value="[verifyPiece(Piece)]/&lt;div&gt;sendverifiedPiece(msg)&lt;/div&gt;" style="edgeLabel;html=1;align=center;verticalAlign=middle;resizable=0;points=[];" vertex="1" connectable="0" parent="bH_SWkeSkAfLZ4fVDIds-41">
          <mxGeometry x="-0.2532" y="1" relative="1" as="geometry">
            <mxPoint x="10" y="-19" as="offset" />
          </mxGeometry>
        </mxCell>
        <mxCell id="bH_SWkeSkAfLZ4fVDIds-43" style="edgeStyle=orthogonalEdgeStyle;rounded=1;orthogonalLoop=1;jettySize=auto;html=1;exitX=0.5;exitY=1;exitDx=0;exitDy=0;entryX=0.75;entryY=1;entryDx=0;entryDy=0;curved=0;" edge="1" parent="bH_SWkeSkAfLZ4fVDIds-1" source="bH_SWkeSkAfLZ4fVDIds-45" target="bH_SWkeSkAfLZ4fVDIds-38">
          <mxGeometry relative="1" as="geometry" />
        </mxCell>
        <mxCell id="bH_SWkeSkAfLZ4fVDIds-44" value="[else]/sendVerifedPiece(msg)" style="edgeLabel;html=1;align=center;verticalAlign=middle;resizable=0;points=[];" vertex="1" connectable="0" parent="bH_SWkeSkAfLZ4fVDIds-43">
          <mxGeometry x="-0.8443" y="3" relative="1" as="geometry">
            <mxPoint x="68" y="-4" as="offset" />
          </mxGeometry>
        </mxCell>
        <mxCell id="bH_SWkeSkAfLZ4fVDIds-45" value="" style="rhombus;whiteSpace=wrap;html=1;" vertex="1" parent="bH_SWkeSkAfLZ4fVDIds-1">
          <mxGeometry x="1589" y="205" width="41" height="30" as="geometry" />
        </mxCell>
        <mxCell id="bH_SWkeSkAfLZ4fVDIds-46" value="" style="ellipse;whiteSpace=wrap;html=1;aspect=fixed;" vertex="1" parent="bH_SWkeSkAfLZ4fVDIds-1">
          <mxGeometry x="1780" y="200" width="40" height="40" as="geometry" />
        </mxCell>
        <mxCell id="bH_SWkeSkAfLZ4fVDIds-47" value="" style="ellipse;whiteSpace=wrap;html=1;aspect=fixed;fillColor=#000000;" vertex="1" parent="bH_SWkeSkAfLZ4fVDIds-1">
          <mxGeometry x="1786.4099999999999" y="206.40999999999985" width="27.18" height="27.18" as="geometry" />
        </mxCell>
        <mxCell id="bH_SWkeSkAfLZ4fVDIds-48" style="edgeStyle=orthogonalEdgeStyle;rounded=1;orthogonalLoop=1;jettySize=auto;html=1;exitX=1;exitY=0.5;exitDx=0;exitDy=0;entryX=0.5;entryY=0;entryDx=0;entryDy=0;curved=0;" edge="1" parent="bH_SWkeSkAfLZ4fVDIds-1" source="bH_SWkeSkAfLZ4fVDIds-50" target="bH_SWkeSkAfLZ4fVDIds-46">
          <mxGeometry relative="1" as="geometry" />
        </mxCell>
        <mxCell id="bH_SWkeSkAfLZ4fVDIds-50" value="NoTurn" style="rounded=1;whiteSpace=wrap;html=1;" vertex="1" parent="bH_SWkeSkAfLZ4fVDIds-1">
          <mxGeometry x="1480.5" y="80" width="120" height="40" as="geometry" />
        </mxCell>
        <mxCell id="bH_SWkeSkAfLZ4fVDIds-51" style="edgeStyle=orthogonalEdgeStyle;rounded=0;orthogonalLoop=1;jettySize=auto;html=1;exitX=1;exitY=0.5;exitDx=0;exitDy=0;entryX=0;entryY=0.5;entryDx=0;entryDy=0;" edge="1" parent="bH_SWkeSkAfLZ4fVDIds-1" source="bH_SWkeSkAfLZ4fVDIds-55" target="bH_SWkeSkAfLZ4fVDIds-60">
          <mxGeometry relative="1" as="geometry" />
        </mxCell>
        <mxCell id="bH_SWkeSkAfLZ4fVDIds-52" value="[board.getPlayerData().getWaitingArea().hasPieces()]" style="edgeLabel;html=1;align=center;verticalAlign=middle;resizable=0;points=[];" vertex="1" connectable="0" parent="bH_SWkeSkAfLZ4fVDIds-51">
          <mxGeometry x="-0.6324" y="3" relative="1" as="geometry">
            <mxPoint x="76" y="-12" as="offset" />
          </mxGeometry>
        </mxCell>
        <mxCell id="bH_SWkeSkAfLZ4fVDIds-53" style="edgeStyle=orthogonalEdgeStyle;rounded=1;orthogonalLoop=1;jettySize=auto;html=1;exitX=0.5;exitY=1;exitDx=0;exitDy=0;entryX=0;entryY=0.5;entryDx=0;entryDy=0;curved=0;" edge="1" parent="bH_SWkeSkAfLZ4fVDIds-1" source="bH_SWkeSkAfLZ4fVDIds-55" target="bH_SWkeSkAfLZ4fVDIds-70">
          <mxGeometry relative="1" as="geometry" />
        </mxCell>
        <mxCell id="bH_SWkeSkAfLZ4fVDIds-54" value="[else]" style="edgeLabel;html=1;align=center;verticalAlign=middle;resizable=0;points=[];" vertex="1" connectable="0" parent="bH_SWkeSkAfLZ4fVDIds-53">
          <mxGeometry x="-0.8041" y="1" relative="1" as="geometry">
            <mxPoint x="20" y="-20" as="offset" />
          </mxGeometry>
        </mxCell>
        <mxCell id="bH_SWkeSkAfLZ4fVDIds-55" value="" style="rhombus;whiteSpace=wrap;html=1;" vertex="1" parent="bH_SWkeSkAfLZ4fVDIds-1">
          <mxGeometry x="480" y="325" width="41" height="30" as="geometry" />
        </mxCell>
        <mxCell id="bH_SWkeSkAfLZ4fVDIds-56" style="edgeStyle=orthogonalEdgeStyle;rounded=0;orthogonalLoop=1;jettySize=auto;html=1;exitX=0.5;exitY=1;exitDx=0;exitDy=0;entryX=0.5;entryY=0;entryDx=0;entryDy=0;" edge="1" parent="bH_SWkeSkAfLZ4fVDIds-1" source="bH_SWkeSkAfLZ4fVDIds-60" target="bH_SWkeSkAfLZ4fVDIds-65">
          <mxGeometry relative="1" as="geometry" />
        </mxCell>
        <mxCell id="bH_SWkeSkAfLZ4fVDIds-57" value="[else]" style="edgeLabel;html=1;align=center;verticalAlign=middle;resizable=0;points=[];" vertex="1" connectable="0" parent="bH_SWkeSkAfLZ4fVDIds-56">
          <mxGeometry x="-0.4971" y="1" relative="1" as="geometry">
            <mxPoint x="19" as="offset" />
          </mxGeometry>
        </mxCell>
        <mxCell id="bH_SWkeSkAfLZ4fVDIds-58" style="edgeStyle=orthogonalEdgeStyle;rounded=0;orthogonalLoop=1;jettySize=auto;html=1;exitX=1;exitY=0.5;exitDx=0;exitDy=0;entryX=0;entryY=0.5;entryDx=0;entryDy=0;" edge="1" parent="bH_SWkeSkAfLZ4fVDIds-1" source="bH_SWkeSkAfLZ4fVDIds-60" target="bH_SWkeSkAfLZ4fVDIds-78">
          <mxGeometry relative="1" as="geometry" />
        </mxCell>
        <mxCell id="bH_SWkeSkAfLZ4fVDIds-59" value="[board.getNodes().getStartNode(Color).isOccuiped()]" style="edgeLabel;html=1;align=center;verticalAlign=middle;resizable=0;points=[];" vertex="1" connectable="0" parent="bH_SWkeSkAfLZ4fVDIds-58">
          <mxGeometry x="0.1961" y="-2" relative="1" as="geometry">
            <mxPoint x="-24" y="-17" as="offset" />
          </mxGeometry>
        </mxCell>
        <mxCell id="bH_SWkeSkAfLZ4fVDIds-60" value="" style="rhombus;whiteSpace=wrap;html=1;" vertex="1" parent="bH_SWkeSkAfLZ4fVDIds-1">
          <mxGeometry x="760.33" y="325" width="41" height="30" as="geometry" />
        </mxCell>
        <mxCell id="bH_SWkeSkAfLZ4fVDIds-61" style="edgeStyle=orthogonalEdgeStyle;rounded=0;orthogonalLoop=1;jettySize=auto;html=1;exitX=0.5;exitY=1;exitDx=0;exitDy=0;entryX=0.5;entryY=0;entryDx=0;entryDy=0;" edge="1" parent="bH_SWkeSkAfLZ4fVDIds-1" source="bH_SWkeSkAfLZ4fVDIds-65" target="bH_SWkeSkAfLZ4fVDIds-70">
          <mxGeometry relative="1" as="geometry" />
        </mxCell>
        <mxCell id="bH_SWkeSkAfLZ4fVDIds-62" value="[else]" style="edgeLabel;html=1;align=center;verticalAlign=middle;resizable=0;points=[];" vertex="1" connectable="0" parent="bH_SWkeSkAfLZ4fVDIds-61">
          <mxGeometry x="-0.6234" y="1" relative="1" as="geometry">
            <mxPoint x="19" as="offset" />
          </mxGeometry>
        </mxCell>
        <mxCell id="bH_SWkeSkAfLZ4fVDIds-63" style="edgeStyle=orthogonalEdgeStyle;rounded=0;orthogonalLoop=1;jettySize=auto;html=1;exitX=1;exitY=0.5;exitDx=0;exitDy=0;entryX=0;entryY=0.5;entryDx=0;entryDy=0;" edge="1" parent="bH_SWkeSkAfLZ4fVDIds-1" source="bH_SWkeSkAfLZ4fVDIds-65" target="bH_SWkeSkAfLZ4fVDIds-81">
          <mxGeometry relative="1" as="geometry" />
        </mxCell>
        <mxCell id="bH_SWkeSkAfLZ4fVDIds-64" value="[board.getNodes().getStartNode(Color).getPiece().canMove()]/&lt;div&gt;sendwaitingPiece(msg)&lt;/div&gt;" style="edgeLabel;html=1;align=center;verticalAlign=middle;resizable=0;points=[];" vertex="1" connectable="0" parent="bH_SWkeSkAfLZ4fVDIds-63">
          <mxGeometry x="-0.4508" relative="1" as="geometry">
            <mxPoint x="70" y="-20" as="offset" />
          </mxGeometry>
        </mxCell>
        <mxCell id="bH_SWkeSkAfLZ4fVDIds-65" value="" style="rhombus;whiteSpace=wrap;html=1;" vertex="1" parent="bH_SWkeSkAfLZ4fVDIds-1">
          <mxGeometry x="760.33" y="405" width="41" height="30" as="geometry" />
        </mxCell>
        <mxCell id="bH_SWkeSkAfLZ4fVDIds-66" style="edgeStyle=orthogonalEdgeStyle;rounded=0;orthogonalLoop=1;jettySize=auto;html=1;exitX=0.5;exitY=1;exitDx=0;exitDy=0;entryX=0.5;entryY=0;entryDx=0;entryDy=0;" edge="1" parent="bH_SWkeSkAfLZ4fVDIds-1" source="bH_SWkeSkAfLZ4fVDIds-70" target="bH_SWkeSkAfLZ4fVDIds-73">
          <mxGeometry relative="1" as="geometry" />
        </mxCell>
        <mxCell id="bH_SWkeSkAfLZ4fVDIds-68" style="edgeStyle=orthogonalEdgeStyle;rounded=1;orthogonalLoop=1;jettySize=auto;html=1;exitX=0.5;exitY=1;exitDx=0;exitDy=0;entryX=0.5;entryY=0;entryDx=0;entryDy=0;curved=0;" edge="1" parent="bH_SWkeSkAfLZ4fVDIds-1" source="bH_SWkeSkAfLZ4fVDIds-70" target="bH_SWkeSkAfLZ4fVDIds-50">
          <mxGeometry relative="1" as="geometry">
            <Array as="points">
              <mxPoint x="781" y="540" />
              <mxPoint x="620" y="540" />
              <mxPoint x="620" y="680" />
              <mxPoint x="1840" y="680" />
              <mxPoint x="1840" y="60" />
              <mxPoint x="1541" y="60" />
            </Array>
          </mxGeometry>
        </mxCell>
        <mxCell id="bH_SWkeSkAfLZ4fVDIds-69" value="player.canMove()" style="edgeLabel;html=1;align=center;verticalAlign=middle;resizable=0;points=[];" vertex="1" connectable="0" parent="bH_SWkeSkAfLZ4fVDIds-68">
          <mxGeometry x="-0.8992" relative="1" as="geometry">
            <mxPoint x="6" y="-10" as="offset" />
          </mxGeometry>
        </mxCell>
        <mxCell id="bH_SWkeSkAfLZ4fVDIds-70" value="" style="rhombus;whiteSpace=wrap;html=1;" vertex="1" parent="bH_SWkeSkAfLZ4fVDIds-1">
          <mxGeometry x="760.33" y="485" width="41" height="30" as="geometry" />
        </mxCell>
        <mxCell id="bH_SWkeSkAfLZ4fVDIds-71" style="edgeStyle=orthogonalEdgeStyle;rounded=0;orthogonalLoop=1;jettySize=auto;html=1;exitX=1;exitY=0.5;exitDx=0;exitDy=0;entryX=0;entryY=0.5;entryDx=0;entryDy=0;" edge="1" parent="bH_SWkeSkAfLZ4fVDIds-1" source="bH_SWkeSkAfLZ4fVDIds-73" target="bH_SWkeSkAfLZ4fVDIds-86">
          <mxGeometry relative="1" as="geometry" />
        </mxCell>
        <mxCell id="bH_SWkeSkAfLZ4fVDIds-73" value="SelectPiece" style="rounded=1;whiteSpace=wrap;html=1;" vertex="1" parent="bH_SWkeSkAfLZ4fVDIds-1">
          <mxGeometry x="720.83" y="560" width="120" height="40" as="geometry" />
        </mxCell>
        <mxCell id="bH_SWkeSkAfLZ4fVDIds-74" style="edgeStyle=orthogonalEdgeStyle;rounded=1;orthogonalLoop=1;jettySize=auto;html=1;exitX=0.5;exitY=0;exitDx=0;exitDy=0;entryX=0.25;entryY=1;entryDx=0;entryDy=0;curved=0;" edge="1" parent="bH_SWkeSkAfLZ4fVDIds-1" source="bH_SWkeSkAfLZ4fVDIds-78" target="bH_SWkeSkAfLZ4fVDIds-38">
          <mxGeometry relative="1" as="geometry">
            <Array as="points">
              <mxPoint x="1142" y="280" />
              <mxPoint x="1350" y="280" />
            </Array>
          </mxGeometry>
        </mxCell>
        <mxCell id="bH_SWkeSkAfLZ4fVDIds-75" value="[roll == 6]/sendWaitingPiece()" style="edgeLabel;html=1;align=center;verticalAlign=middle;resizable=0;points=[];" vertex="1" connectable="0" parent="bH_SWkeSkAfLZ4fVDIds-74">
          <mxGeometry x="-0.8803" relative="1" as="geometry">
            <mxPoint x="79" y="-7" as="offset" />
          </mxGeometry>
        </mxCell>
        <mxCell id="bH_SWkeSkAfLZ4fVDIds-76" style="edgeStyle=orthogonalEdgeStyle;rounded=1;orthogonalLoop=1;jettySize=auto;html=1;exitX=0.5;exitY=1;exitDx=0;exitDy=0;entryX=0.5;entryY=0;entryDx=0;entryDy=0;curved=0;" edge="1" parent="bH_SWkeSkAfLZ4fVDIds-1" source="bH_SWkeSkAfLZ4fVDIds-78" target="bH_SWkeSkAfLZ4fVDIds-70">
          <mxGeometry relative="1" as="geometry">
            <Array as="points">
              <mxPoint x="1142" y="460" />
              <mxPoint x="781" y="460" />
            </Array>
          </mxGeometry>
        </mxCell>
        <mxCell id="bH_SWkeSkAfLZ4fVDIds-77" value="[else]" style="edgeLabel;html=1;align=center;verticalAlign=middle;resizable=0;points=[];" vertex="1" connectable="0" parent="bH_SWkeSkAfLZ4fVDIds-76">
          <mxGeometry x="-0.7379" y="-1" relative="1" as="geometry">
            <mxPoint x="-15" y="-60" as="offset" />
          </mxGeometry>
        </mxCell>
        <mxCell id="bH_SWkeSkAfLZ4fVDIds-78" value="" style="rhombus;whiteSpace=wrap;html=1;" vertex="1" parent="bH_SWkeSkAfLZ4fVDIds-1">
          <mxGeometry x="1121" y="325" width="41" height="30" as="geometry" />
        </mxCell>
        <mxCell id="bH_SWkeSkAfLZ4fVDIds-79" style="edgeStyle=orthogonalEdgeStyle;rounded=0;orthogonalLoop=1;jettySize=auto;html=1;exitX=1;exitY=0.5;exitDx=0;exitDy=0;entryX=0;entryY=0.5;entryDx=0;entryDy=0;" edge="1" parent="bH_SWkeSkAfLZ4fVDIds-1" source="bH_SWkeSkAfLZ4fVDIds-81" target="bH_SWkeSkAfLZ4fVDIds-93">
          <mxGeometry relative="1" as="geometry" />
        </mxCell>
        <mxCell id="bH_SWkeSkAfLZ4fVDIds-81" value="StartPiece" style="rounded=1;whiteSpace=wrap;html=1;" vertex="1" parent="bH_SWkeSkAfLZ4fVDIds-1">
          <mxGeometry x="1160" y="400" width="120" height="40" as="geometry" />
        </mxCell>
        <mxCell id="bH_SWkeSkAfLZ4fVDIds-82" style="edgeStyle=orthogonalEdgeStyle;rounded=1;orthogonalLoop=1;jettySize=auto;html=1;exitX=0.5;exitY=0;exitDx=0;exitDy=0;entryX=0.75;entryY=0;entryDx=0;entryDy=0;curved=0;" edge="1" parent="bH_SWkeSkAfLZ4fVDIds-1" source="bH_SWkeSkAfLZ4fVDIds-86" target="bH_SWkeSkAfLZ4fVDIds-73">
          <mxGeometry relative="1" as="geometry" />
        </mxCell>
        <mxCell id="bH_SWkeSkAfLZ4fVDIds-84" style="edgeStyle=orthogonalEdgeStyle;rounded=1;orthogonalLoop=1;jettySize=auto;html=1;exitX=1;exitY=0.5;exitDx=0;exitDy=0;entryX=0.5;entryY=1;entryDx=0;entryDy=0;curved=0;" edge="1" parent="bH_SWkeSkAfLZ4fVDIds-1" source="bH_SWkeSkAfLZ4fVDIds-86" target="bH_SWkeSkAfLZ4fVDIds-46">
          <mxGeometry relative="1" as="geometry" />
        </mxCell>
        <mxCell id="bH_SWkeSkAfLZ4fVDIds-86" value="" style="rhombus;whiteSpace=wrap;html=1;" vertex="1" parent="bH_SWkeSkAfLZ4fVDIds-1">
          <mxGeometry x="959" y="565" width="41" height="30" as="geometry" />
        </mxCell>
        <mxCell id="bH_SWkeSkAfLZ4fVDIds-89" style="edgeStyle=orthogonalEdgeStyle;rounded=1;orthogonalLoop=1;jettySize=auto;html=1;exitX=1;exitY=0.5;exitDx=0;exitDy=0;entryX=0.5;entryY=1;entryDx=0;entryDy=0;curved=0;" edge="1" parent="bH_SWkeSkAfLZ4fVDIds-1" source="bH_SWkeSkAfLZ4fVDIds-93" target="bH_SWkeSkAfLZ4fVDIds-46">
          <mxGeometry relative="1" as="geometry" />
        </mxCell>
        <mxCell id="bH_SWkeSkAfLZ4fVDIds-91" style="edgeStyle=orthogonalEdgeStyle;rounded=1;orthogonalLoop=1;jettySize=auto;html=1;exitX=0.5;exitY=1;exitDx=0;exitDy=0;entryX=0.5;entryY=1;entryDx=0;entryDy=0;curved=0;" edge="1" parent="bH_SWkeSkAfLZ4fVDIds-1" source="bH_SWkeSkAfLZ4fVDIds-93" target="bH_SWkeSkAfLZ4fVDIds-81">
          <mxGeometry relative="1" as="geometry" />
        </mxCell>
        <mxCell id="bH_SWkeSkAfLZ4fVDIds-93" value="" style="rhombus;whiteSpace=wrap;html=1;" vertex="1" parent="bH_SWkeSkAfLZ4fVDIds-1">
          <mxGeometry x="1440" y="405" width="41" height="30" as="geometry" />
        </mxCell>
        <mxCell id="bH_SWkeSkAfLZ4fVDIds-97" value="receiveConfirmPiece(Piece)" style="edgeLabel;html=1;align=center;verticalAlign=middle;resizable=0;points=[];" vertex="1" connectable="0" parent="bH_SWkeSkAfLZ4fVDIds-1">
          <mxGeometry x="1360" y="405" as="geometry" />
        </mxCell>
        <mxCell id="bH_SWkeSkAfLZ4fVDIds-98" value="receiveConfirmPiece(Piece)" style="edgeLabel;html=1;align=center;verticalAlign=middle;resizable=0;points=[];" vertex="1" connectable="0" parent="bH_SWkeSkAfLZ4fVDIds-1">
          <mxGeometry x="900" y="470" as="geometry">
            <mxPoint x="7" y="96" as="offset" />
          </mxGeometry>
        </mxCell>
        <mxCell id="bH_SWkeSkAfLZ4fVDIds-100" value="[verifyPiece(Piece)]/&lt;div&gt;sendverifiedPiece(msg)&lt;/div&gt;" style="edgeLabel;html=1;align=center;verticalAlign=middle;resizable=0;points=[];" vertex="1" connectable="0" parent="bH_SWkeSkAfLZ4fVDIds-1">
          <mxGeometry x="1540.502068965517" y="400" as="geometry" />
        </mxCell>
        <mxCell id="bH_SWkeSkAfLZ4fVDIds-101" value="[verifyPiece(Piece)]/&lt;div&gt;sendverifiedPiece(msg)&lt;/div&gt;" style="edgeLabel;html=1;align=center;verticalAlign=middle;resizable=0;points=[];" vertex="1" connectable="0" parent="bH_SWkeSkAfLZ4fVDIds-1">
          <mxGeometry x="1110.002068965517" y="560" as="geometry" />
        </mxCell>
        <mxCell id="bH_SWkeSkAfLZ4fVDIds-102" value="[else]/sendVerifedPiece(msg)" style="edgeLabel;html=1;align=center;verticalAlign=middle;resizable=0;points=[];" vertex="1" connectable="0" parent="bH_SWkeSkAfLZ4fVDIds-1">
          <mxGeometry x="1540.4967001561254" y="450.0024063632086" as="geometry" />
        </mxCell>
        <mxCell id="bH_SWkeSkAfLZ4fVDIds-103" value="[else]/sendVerifedPiece(msg)" style="edgeLabel;html=1;align=center;verticalAlign=middle;resizable=0;points=[];" vertex="1" connectable="0" parent="bH_SWkeSkAfLZ4fVDIds-1">
          <mxGeometry x="949.9967001561254" y="530.0024063632086" as="geometry" />
        </mxCell>
        <mxCell id="bH_SWkeSkAfLZ4fVDIds-106" value="[else]/sendSelectPiece(msg)" style="edgeLabel;html=1;align=center;verticalAlign=middle;resizable=0;points=[];" vertex="1" connectable="0" parent="bH_SWkeSkAfLZ4fVDIds-1">
          <mxGeometry x="850" y="514.9951724137932" as="geometry" />
        </mxCell>
        <mxCell id="bH_SWkeSkAfLZ4fVDIds-107" value="sendEndOfTurn(msg)" style="text;html=1;align=center;verticalAlign=middle;resizable=0;points=[];autosize=1;strokeColor=none;fillColor=none;" vertex="1" parent="bH_SWkeSkAfLZ4fVDIds-1">
          <mxGeometry x="1595.5" y="100" width="140" height="30" as="geometry" />
        </mxCell>
      </root>
    </mxGraphModel>
  </diagram>
</mxfile>
